<svg width="22" height="24" viewBox="0 0 22 24" fill="none" xmlns="http://www.w3.org/2000/svg">
<path d="M21.9225 12.1198C21.8977 11.0752 22.0215 10.0101 21.9967 8.96553C21.972 7.83901 21.9967 6.69202 21.9472 5.5655C21.873 4.09079 21.9472 2.61608 21.9472 1.12089C21.9472 0.301601 21.6749 0.117263 20.7096 0.0967804C19.6453 0.0967804 18.5809 0.199191 17.5661 0.0967804C15.3384 -0.0875585 13.1108 0.0558162 10.8831 0.014852C7.6406 -0.00563007 4.44761 0.137745 1.22986 0.0353341C0.561559 0.0353341 0.0417688 0.363048 0.0417688 0.916064C0.0417688 2.90283 0.0417688 4.91007 0.0417688 6.89684C0.0417688 8.55589 0.0912727 10.2149 0.0417688 11.874C-0.0324869 15.5198 -0.00773497 19.1451 0.116025 22.7909C0.116025 22.9138 0.116025 23.0162 0.0912727 23.1391C0.0665207 23.3849 -0.0572388 23.6922 0.215032 23.8355C0.536807 24.0199 0.883334 23.815 1.1061 23.6307C1.7249 23.1391 2.51696 22.8524 3.18526 22.4223C4.27434 21.7054 5.51194 21.1729 6.65053 20.4969C7.76436 19.8415 8.97721 19.3295 10.0415 18.6331C10.5366 18.3054 11.0564 18.3258 11.5762 18.5102C11.8484 18.5921 12.0217 18.8379 12.2692 18.9813C15.1404 20.5174 17.9869 22.0536 20.8581 23.5897C21.1056 23.7126 21.3284 23.9994 21.6254 23.8765C21.972 23.7536 21.972 23.3849 21.9472 23.1391C21.8482 22.197 21.9967 21.2548 21.9225 20.3126C21.6997 17.568 21.972 14.8439 21.8729 12.0993L21.9225 12.1198Z" fill="#8C162E"/>
</svg>
