<svg width="291" height="153" viewBox="0 0 291 153" fill="none" xmlns="http://www.w3.org/2000/svg">
<path d="M280.244 104.942C269.256 98.9171 269.002 98.5054 277.635 89.6037C282.005 84.9246 281.39 81.3071 275.354 78.362C273.736 77.5284 271.781 76.8843 269.983 76.0731C263.585 73.1728 263.396 70.9799 268.793 66.9122C269.623 66.3661 270.477 65.9646 271.101 65.2962C276.005 61.5851 276.055 58.6239 271.497 54.6088C268.911 52.4179 265.88 50.873 262.718 49.6398C254.013 46.1885 253.009 41.7327 259.706 36.2724C259.706 36.2724 260.355 35.7487 260.511 35.5816C264.38 32.2944 263.979 27.7639 259.511 25.363C257.072 24.0402 254.296 22.907 251.545 21.9184C247.611 20.4856 247.241 18.3151 249.172 15.5638C250.815 13.2915 252.869 11.2638 254.512 8.99145C256.861 5.44949 255.597 2.35574 251.244 1.7136C247.096 1.19374 242.793 0.840999 238.563 0.922352C223.475 1.16836 208.756 3.58486 194.062 6.14606C180.633 8.55039 166.802 9.67483 153.11 9.45215C140.166 9.28453 126.91 9.45112 114.532 12.6116C94.7126 17.5815 74.7947 21.9726 53.9738 23.2252C37.5142 24.0846 21.4815 26.3686 6.14642 31.6688C0.224303 33.7331 -1.0081 36.25 3.13898 40.0205C4.90456 41.7223 7.49975 42.8779 9.6021 44.3902C13.1663 46.9032 14.3321 49.4182 9.66649 52.3609C7.33368 53.8322 5.07472 55.7377 3.38245 57.7206C0.622244 61.018 1.9028 65.2917 6.29658 67.2586C8.48117 68.1697 10.5097 69.2478 12.6696 70.0142C17.7616 71.7467 17.7694 73.962 14.2618 77.2044C10.2614 80.8033 4.8237 83.5463 2.10434 88.1684C-0.927182 93.1247 0.13185 96.0962 5.88897 98.4849C16.6066 102.918 16.7543 103.786 7.9567 110.64L7.15166 111.331C1.15516 116.211 1.58987 119.851 8.34055 123.742C9.16179 124.231 9.98302 124.72 10.8043 125.21C18.1709 129.467 18.3841 131.805 11.9439 137.332C8.87993 139.928 6.79329 142.846 4.91195 145.887C3.86862 147.346 2.92375 149.384 4.30332 150.986C5.91281 152.855 8.44253 152.541 10.9723 152.227C18.7176 151.119 25.1164 147.518 32.5333 145.564C44.3691 142.471 56.6156 139.622 68.7793 140.625C88.803 142.279 107.711 138.456 126.873 135.045C140.121 132.664 153.493 131.005 167.168 130.048C177.361 129.227 187.652 128.985 196.941 128.276C205.648 126.31 213.114 124.645 220.662 122.379C233.821 118.383 247.652 117.258 261.861 117.269C269.623 117.341 276.957 119.238 284.727 118.275C290.509 117.558 292.234 114.684 288.522 111.303C286.297 109.067 283.554 107.043 280.524 105.498L280.244 104.942Z" fill="#151B27"/>
</svg>
