<svg width="455" height="515" viewBox="0 0 455 515" fill="none" xmlns="http://www.w3.org/2000/svg">
<path d="M398.456 113.181L283.743 227.894C283.3 228.34 283.052 228.944 283.055 229.572C283.057 230.201 283.309 230.803 283.755 231.245C284.201 231.688 284.804 231.936 285.433 231.934C286.061 231.932 286.663 231.68 287.106 231.234L401.819 116.544C402.265 116.098 402.515 115.493 402.515 114.863C402.515 114.232 402.265 113.627 401.819 113.181C401.373 112.735 400.768 112.485 400.137 112.485C399.507 112.485 398.902 112.735 398.456 113.181Z" fill="#ECEBEB"/>
<path d="M433.64 78.0204L418.564 93.0959C418.121 93.5388 417.873 94.1394 417.873 94.7658C417.873 95.3921 418.121 95.9928 418.564 96.4357C419.007 96.8786 419.608 97.1274 420.234 97.1274C420.861 97.1274 421.461 96.8786 421.904 96.4357L436.98 81.3602C437.422 80.9173 437.671 80.3166 437.671 79.6903C437.671 79.0639 437.422 78.4633 436.98 78.0204C436.537 77.5775 435.936 77.3287 435.31 77.3287C434.683 77.3287 434.083 77.5775 433.64 78.0204Z" fill="#ECEBEB"/>
<path d="M202.985 63.2696L244.987 219.962C245.15 220.577 245.551 221.102 246.101 221.422C246.651 221.742 247.306 221.83 247.921 221.667C248.536 221.504 249.062 221.103 249.381 220.553C249.701 220.003 249.789 219.348 249.626 218.733L207.646 62.0404C207.483 61.4222 207.081 60.8941 206.529 60.5722C205.977 60.2503 205.319 60.1611 204.701 60.3241C204.083 60.4871 203.555 60.889 203.233 61.4414C202.911 61.9938 202.822 62.6514 202.985 63.2696Z" fill="#ECEBEB"/>
<path d="M190.113 15.2135L195.633 35.809C195.796 36.4241 196.196 36.9493 196.746 37.269C197.297 37.5887 197.951 37.6767 198.566 37.5137C199.182 37.3507 199.707 36.95 200.026 36.3998C200.346 35.8496 200.434 35.1949 200.271 34.5798L194.705 14.0771C194.554 13.4681 194.168 12.9439 193.63 12.6199C193.093 12.2959 192.449 12.1985 191.84 12.3492C191.231 12.4999 190.707 12.8863 190.383 13.4235C190.059 13.9607 189.962 14.6046 190.113 15.2135Z" fill="#ECEBEB"/>
<path d="M62.0172 207.577L218.71 249.58C219.325 249.743 219.979 249.655 220.53 249.335C221.08 249.015 221.481 248.49 221.644 247.875C221.807 247.26 221.718 246.605 221.399 246.055C221.079 245.505 220.554 245.104 219.939 244.941L63.2464 202.962C62.6344 202.798 61.9826 202.885 61.4346 203.203C60.8865 203.52 60.4871 204.043 60.3241 204.655C60.161 205.267 60.2478 205.918 60.5653 206.466C60.8829 207.014 61.4051 207.414 62.0172 207.577Z" fill="#ECEBEB"/>
<path d="M13.9843 194.705L34.5565 200.225C35.1717 200.388 35.8264 200.3 36.3766 199.98C36.9268 199.66 37.3275 199.135 37.4905 198.52C37.6535 197.905 37.5655 197.25 37.2458 196.7C36.9261 196.15 36.4009 195.749 35.7858 195.586L15.2135 190.066C14.909 189.985 14.5915 189.965 14.2792 190.007C13.967 190.049 13.6659 190.153 13.3935 190.311C13.1211 190.469 12.8825 190.68 12.6914 190.93C12.5002 191.181 12.3604 191.466 12.2796 191.771C12.1989 192.075 12.179 192.393 12.221 192.705C12.263 193.017 12.366 193.318 12.5243 193.591C12.6826 193.863 12.893 194.102 13.1435 194.293C13.394 194.484 13.6797 194.624 13.9843 194.705Z" fill="#ECEBEB"/>
<path d="M116.521 401.819L231.234 287.129C231.68 286.683 231.93 286.078 231.93 285.448C231.93 284.817 231.68 284.212 231.234 283.766C230.788 283.32 230.183 283.07 229.552 283.07C228.922 283.07 228.317 283.32 227.871 283.766L113.158 398.479C112.715 398.925 112.467 399.529 112.47 400.157C112.472 400.786 112.724 401.388 113.17 401.831C113.615 402.273 114.219 402.521 114.848 402.519C115.476 402.517 116.078 402.265 116.521 401.819Z" fill="#ECEBEB"/>
<path d="M81.4066 437.003L96.4588 421.927C96.9048 421.469 97.1505 420.852 97.1418 420.213C97.1331 419.574 96.8708 418.964 96.4125 418.518C95.9542 418.072 95.3376 417.826 94.6982 417.835C94.0588 417.844 93.4491 418.106 93.0031 418.564L77.9276 433.64C77.7068 433.868 77.5331 434.138 77.4165 434.434C77.2999 434.729 77.2427 435.045 77.2481 435.362C77.2535 435.68 77.3214 435.994 77.4479 436.285C77.5745 436.576 77.7571 436.84 77.9856 437.061C78.214 437.282 78.4837 437.455 78.7792 437.572C79.0748 437.689 79.3904 437.746 79.7081 437.74C80.0257 437.735 80.3393 437.667 80.6307 437.54C80.9221 437.414 81.1858 437.231 81.4066 437.003Z" fill="#ECEBEB"/>
<path d="M311.992 451.754L270.013 295.061C269.85 294.446 269.449 293.921 268.899 293.601C268.349 293.282 267.694 293.193 267.079 293.356C266.464 293.52 265.939 293.92 265.619 294.47C265.299 295.021 265.211 295.675 265.374 296.29L307.377 452.983C307.457 453.286 307.597 453.57 307.788 453.819C307.978 454.068 308.216 454.277 308.487 454.435C308.759 454.592 309.058 454.694 309.369 454.735C309.68 454.777 309.996 454.757 310.299 454.676C310.602 454.595 310.886 454.456 311.135 454.265C311.385 454.075 311.594 453.837 311.751 453.565C311.908 453.294 312.01 452.994 312.052 452.684C312.093 452.373 312.073 452.057 311.992 451.754Z" fill="#ECEBEB"/>
<path d="M324.934 499.786L319.414 479.214C319.254 478.599 318.856 478.073 318.308 477.751C317.76 477.429 317.107 477.338 316.491 477.498C315.876 477.658 315.35 478.056 315.028 478.604C314.706 479.152 314.615 479.805 314.775 480.42L320.295 501.132C320.474 501.747 320.889 502.266 321.45 502.575C322.011 502.883 322.672 502.957 323.287 502.778C323.902 502.6 324.421 502.185 324.73 501.623C325.039 501.062 325.112 500.402 324.934 499.786Z" fill="#ECEBEB"/>
<path d="M452.96 307.423L296.267 265.444C295.652 265.281 294.997 265.369 294.447 265.688C293.897 266.008 293.496 266.533 293.333 267.148C293.17 267.763 293.258 268.418 293.578 268.968C293.898 269.519 294.423 269.919 295.038 270.082L451.73 312.085C452.349 312.248 453.006 312.159 453.559 311.837C454.111 311.515 454.513 310.987 454.676 310.369C454.839 309.75 454.75 309.093 454.428 308.54C454.106 307.988 453.578 307.586 452.96 307.423Z" fill="#ECEBEB"/>
<path d="M500.992 320.226L480.328 314.799C479.712 314.636 479.058 314.724 478.507 315.043C477.957 315.363 477.557 315.888 477.394 316.503C477.231 317.118 477.319 317.773 477.638 318.323C477.958 318.873 478.483 319.274 479.098 319.437L499.694 324.957C500.321 325.129 500.991 325.045 501.557 324.723C502.122 324.402 502.537 323.868 502.709 323.241C502.881 322.613 502.797 321.943 502.475 321.378C502.153 320.812 501.62 320.398 500.992 320.226Z" fill="#ECEBEB"/>
<path d="M255.123 111.024V208.899C255.123 209.514 255.367 210.104 255.802 210.539C256.237 210.974 256.827 211.218 257.442 211.218C258.057 211.218 258.647 210.974 259.082 210.539C259.517 210.104 259.761 209.514 259.761 208.899V111.024C259.761 110.409 259.517 109.819 259.082 109.384C258.647 108.949 258.057 108.705 257.442 108.705C256.827 108.705 256.237 108.949 255.802 109.384C255.367 109.819 255.123 110.409 255.123 111.024Z" fill="#ECEBEB"/>
<path d="M255.123 74.727V89.7097C255.123 90.3248 255.367 90.9147 255.802 91.3497C256.237 91.7847 256.827 92.029 257.442 92.029C258.057 92.029 258.647 91.7847 259.082 91.3497C259.517 90.9147 259.761 90.3248 259.761 89.7097V74.727C259.761 74.1118 259.517 73.5219 259.082 73.087C258.647 72.652 258.057 72.4077 257.442 72.4077C256.827 72.4077 256.237 72.652 255.802 73.087C255.367 73.5219 255.123 74.1118 255.123 74.727Z" fill="#ECEBEB"/>
<path d="M255.123 16.0253V31.0312C255.123 31.6463 255.367 32.2363 255.802 32.6712C256.237 33.1062 256.827 33.3505 257.442 33.3505C258.057 33.3505 258.647 33.1062 259.082 32.6712C259.517 32.2363 259.761 31.6463 259.761 31.0312V16.0253C259.761 15.4102 259.517 14.8203 259.082 14.3853C258.647 13.9504 258.057 13.706 257.442 13.706C256.827 13.706 256.237 13.9504 255.802 14.3853C255.367 14.8203 255.123 15.4102 255.123 16.0253Z" fill="#ECEBEB"/>
<path d="M129.463 186.309L214.233 235.269C214.778 235.577 215.422 235.656 216.024 235.488C216.627 235.321 217.138 234.921 217.446 234.377C217.753 233.832 217.832 233.188 217.664 232.585C217.497 231.983 217.097 231.472 216.553 231.164L131.782 182.227C131.241 181.919 130.599 181.839 129.999 182.005C129.399 182.17 128.889 182.567 128.581 183.108C128.274 183.65 128.194 184.291 128.359 184.891C128.524 185.491 128.921 186.001 129.463 186.309Z" fill="#ECEBEB"/>
<path d="M98.0128 168.172L111.001 175.663C111.545 175.971 112.19 176.049 112.792 175.882C113.394 175.715 113.906 175.315 114.213 174.77C114.521 174.226 114.599 173.582 114.432 172.979C114.265 172.377 113.865 171.866 113.32 171.558L100.332 164.067C99.7877 163.759 99.1435 163.68 98.541 163.848C97.9386 164.015 97.4274 164.415 97.1199 164.96C96.8123 165.504 96.7336 166.148 96.9011 166.751C97.0685 167.353 97.4684 167.864 98.0128 168.172Z" fill="#ECEBEB"/>
<path d="M47.1735 138.809L60.1617 146.324C60.7061 146.632 61.3503 146.71 61.9528 146.543C62.251 146.46 62.53 146.319 62.7739 146.128C63.0177 145.938 63.2217 145.701 63.3739 145.431C63.5262 145.161 63.6239 144.865 63.6615 144.557C63.699 144.25 63.6756 143.938 63.5927 143.64C63.5098 143.342 63.369 143.063 63.1782 142.819C62.9875 142.575 62.7505 142.371 62.481 142.219L49.4929 134.704C48.9485 134.397 48.3043 134.318 47.7018 134.485C47.0994 134.653 46.5882 135.053 46.2807 135.597C45.9731 136.142 45.8944 136.786 46.0618 137.388C46.2293 137.991 46.6292 138.502 47.1735 138.809Z" fill="#ECEBEB"/>
<path d="M131.828 332.796L216.599 283.859C216.868 283.707 217.105 283.503 217.296 283.259C217.487 283.015 217.628 282.736 217.711 282.438C217.794 282.139 217.817 281.828 217.779 281.52C217.742 281.213 217.644 280.916 217.492 280.647C217.34 280.377 217.136 280.14 216.892 279.949C216.648 279.759 216.369 279.618 216.071 279.535C215.772 279.452 215.461 279.429 215.153 279.466C214.846 279.504 214.549 279.601 214.28 279.754L129.509 328.691C128.965 328.999 128.565 329.51 128.397 330.112C128.23 330.715 128.308 331.359 128.616 331.903C128.924 332.448 129.435 332.848 130.037 333.015C130.64 333.183 131.284 333.104 131.828 332.796Z" fill="#ECEBEB"/>
<path d="M100.378 350.957L113.367 343.442C113.908 343.134 114.305 342.624 114.47 342.024C114.635 341.424 114.556 340.783 114.248 340.241C113.94 339.7 113.43 339.303 112.83 339.138C112.23 338.973 111.589 339.052 111.047 339.36L98.0592 346.851C97.5148 347.159 97.1149 347.67 96.9474 348.273C96.78 348.875 96.8587 349.519 97.1663 350.064C97.4738 350.608 97.985 351.008 98.5875 351.175C99.1899 351.343 99.8341 351.264 100.378 350.957Z" fill="#ECEBEB"/>
<path d="M49.5393 380.296L62.5274 372.804C62.7969 372.652 63.0339 372.448 63.2246 372.204C63.4154 371.961 63.5563 371.682 63.6392 371.383C63.7221 371.085 63.7454 370.773 63.7079 370.466C63.6704 370.159 63.5726 369.862 63.4203 369.592C63.268 369.323 63.0642 369.086 62.8203 368.895C62.5765 368.704 62.2974 368.563 61.9991 368.48C61.7009 368.397 61.3891 368.374 61.0818 368.412C60.7745 368.449 60.4776 368.547 60.2081 368.699L47.22 376.191C46.6756 376.498 46.2757 377.009 46.1083 377.612C45.9408 378.214 46.0195 378.858 46.327 379.403C46.6346 379.947 47.1458 380.347 47.7482 380.515C48.3506 380.682 48.9949 380.603 49.5393 380.296Z" fill="#ECEBEB"/>
<path d="M259.854 403.976V306.101C259.854 305.486 259.61 304.896 259.175 304.461C258.74 304.026 258.15 303.782 257.535 303.782C256.92 303.782 256.33 304.026 255.895 304.461C255.46 304.896 255.215 305.486 255.215 306.101V403.976C255.215 404.591 255.46 405.181 255.895 405.616C256.33 406.051 256.92 406.295 257.535 406.295C258.15 406.295 258.74 406.051 259.175 405.616C259.61 405.181 259.854 404.591 259.854 403.976Z" fill="#ECEBEB"/>
<path d="M259.854 440.296V425.29C259.854 424.675 259.61 424.085 259.175 423.65C258.74 423.215 258.15 422.971 257.535 422.971C256.92 422.971 256.33 423.215 255.895 423.65C255.46 424.085 255.215 424.675 255.215 425.29V440.296C255.215 440.911 255.46 441.501 255.895 441.936C256.33 442.371 256.92 442.616 257.535 442.616C258.15 442.616 258.74 442.371 259.175 441.936C259.61 441.501 259.854 440.911 259.854 440.296Z" fill="#ECEBEB"/>
<path d="M259.854 498.998V483.992C259.854 483.377 259.61 482.787 259.175 482.352C258.74 481.917 258.15 481.673 257.535 481.673C256.92 481.673 256.33 481.917 255.895 482.352C255.46 482.787 255.215 483.377 255.215 483.992V498.998C255.215 499.613 255.46 500.203 255.895 500.638C256.33 501.073 256.92 501.317 257.535 501.317C258.15 501.317 258.74 501.073 259.175 500.638C259.61 500.203 259.854 499.613 259.854 498.998Z" fill="#ECEBEB"/>
<path d="M385.537 328.691L300.743 279.754C300.474 279.601 300.177 279.504 299.87 279.466C299.562 279.429 299.251 279.452 298.952 279.535C298.654 279.618 298.375 279.759 298.131 279.949C297.887 280.14 297.684 280.377 297.531 280.647C297.379 280.916 297.281 281.213 297.244 281.52C297.206 281.828 297.229 282.139 297.312 282.438C297.395 282.736 297.536 283.015 297.727 283.259C297.918 283.503 298.155 283.707 298.424 283.859L383.195 332.796C383.739 333.107 384.385 333.189 384.989 333.023C385.594 332.858 386.108 332.459 386.419 331.915C386.729 331.371 386.811 330.725 386.646 330.12C386.48 329.516 386.082 329.002 385.537 328.691Z" fill="#ECEBEB"/>
<path d="M416.964 346.851L403.976 339.36C403.435 339.052 402.793 338.973 402.193 339.138C401.593 339.303 401.083 339.7 400.775 340.241C400.468 340.783 400.388 341.424 400.553 342.024C400.718 342.624 401.115 343.134 401.657 343.442L414.645 350.957C415.189 351.264 415.833 351.343 416.436 351.175C417.038 351.008 417.549 350.608 417.857 350.064C418.164 349.519 418.243 348.875 418.076 348.273C417.908 347.67 417.508 347.159 416.964 346.851Z" fill="#ECEBEB"/>
<path d="M467.803 376.191L454.815 368.699C454.546 368.547 454.249 368.449 453.941 368.412C453.634 368.374 453.322 368.397 453.024 368.48C452.726 368.563 452.447 368.704 452.203 368.895C451.959 369.086 451.755 369.323 451.603 369.592C451.451 369.862 451.353 370.159 451.315 370.466C451.278 370.773 451.301 371.085 451.384 371.383C451.467 371.682 451.608 371.961 451.799 372.204C451.989 372.448 452.226 372.652 452.496 372.804L465.484 380.296C466.028 380.603 466.673 380.682 467.275 380.515C467.877 380.347 468.389 379.947 468.696 379.403C469.004 378.858 469.082 378.214 468.915 377.612C468.747 377.009 468.348 376.498 467.803 376.191Z" fill="#ECEBEB"/>
<path d="M383.148 182.227L298.378 231.164C298.108 231.317 297.871 231.52 297.681 231.764C297.49 232.008 297.349 232.287 297.266 232.585C297.183 232.884 297.16 233.195 297.197 233.503C297.235 233.81 297.332 234.107 297.485 234.377C297.637 234.646 297.841 234.883 298.085 235.074C298.329 235.264 298.608 235.405 298.906 235.488C299.204 235.571 299.516 235.595 299.823 235.557C300.131 235.519 300.427 235.422 300.697 235.269L385.491 186.309C386.032 185.998 386.428 185.485 386.591 184.883C386.754 184.28 386.671 183.638 386.361 183.097C386.05 182.555 385.537 182.16 384.935 181.996C384.332 181.833 383.69 181.916 383.148 182.227Z" fill="#ECEBEB"/>
<path d="M414.598 164.067L401.61 171.558C401.066 171.866 400.666 172.377 400.498 172.979C400.331 173.582 400.41 174.226 400.717 174.77C401.025 175.315 401.536 175.715 402.138 175.882C402.741 176.049 403.385 175.971 403.929 175.663L416.918 168.172C417.187 168.02 417.424 167.816 417.615 167.572C417.806 167.328 417.946 167.049 418.029 166.751C418.112 166.452 418.136 166.141 418.098 165.833C418.06 165.526 417.963 165.229 417.81 164.96C417.658 164.69 417.454 164.453 417.211 164.262C416.967 164.072 416.688 163.931 416.389 163.848C416.091 163.765 415.779 163.742 415.472 163.779C415.165 163.817 414.868 163.914 414.598 164.067Z" fill="#ECEBEB"/>
<path d="M465.437 134.681L452.449 142.196C451.905 142.503 451.505 143.014 451.338 143.617C451.17 144.219 451.249 144.863 451.556 145.408C451.864 145.952 452.375 146.352 452.978 146.52C453.58 146.687 454.224 146.608 454.769 146.301L467.757 138.786C468.301 138.479 468.701 137.967 468.868 137.365C469.036 136.763 468.957 136.118 468.65 135.574C468.342 135.03 467.831 134.63 467.228 134.462C466.626 134.295 465.982 134.374 465.437 134.681Z" fill="#ECEBEB"/>
<path d="M381.316 255.146H322.916C322.301 255.146 321.711 255.39 321.276 255.825C320.841 256.26 320.597 256.85 320.597 257.465C320.597 258.08 320.841 258.67 321.276 259.105C321.711 259.54 322.301 259.785 322.916 259.785H381.316C381.931 259.785 382.521 259.54 382.956 259.105C383.391 258.67 383.635 258.08 383.635 257.465C383.635 256.85 383.391 256.26 382.956 255.825C382.521 255.39 381.931 255.146 381.316 255.146Z" fill="#ECEBEB"/>
<path d="M422.345 255.146H397.111C396.496 255.146 395.906 255.39 395.471 255.825C395.036 256.26 394.791 256.85 394.791 257.465C394.791 258.08 395.036 258.67 395.471 259.105C395.906 259.54 396.496 259.785 397.111 259.785H422.345C422.96 259.785 423.55 259.54 423.985 259.105C424.42 258.67 424.664 258.08 424.664 257.465C424.664 256.85 424.42 256.26 423.985 255.825C423.55 255.39 422.96 255.146 422.345 255.146Z" fill="#ECEBEB"/>
<path d="M507.626 255.146H461.773C461.158 255.146 460.568 255.39 460.133 255.825C459.698 256.26 459.454 256.85 459.454 257.465C459.454 258.08 459.698 258.67 460.133 259.105C460.568 259.54 461.158 259.785 461.773 259.785H507.556C508.171 259.794 508.765 259.558 509.206 259.13C509.648 258.701 509.901 258.115 509.91 257.5C509.919 256.885 509.684 256.291 509.255 255.85C508.827 255.408 508.241 255.155 507.626 255.146Z" fill="#ECEBEB"/>
<path d="M317.35 149.084L288.15 199.622C287.842 200.166 287.763 200.81 287.931 201.413C288.098 202.015 288.498 202.526 289.043 202.834C289.587 203.141 290.231 203.22 290.834 203.053C291.436 202.885 291.947 202.485 292.255 201.941L321.455 151.357C321.756 150.813 321.829 150.171 321.657 149.573C321.486 148.975 321.083 148.469 320.539 148.168C319.994 147.866 319.353 147.794 318.755 147.965C318.156 148.137 317.651 148.54 317.35 149.084Z" fill="#ECEBEB"/>
<path d="M337.876 113.529L325.259 135.4C324.951 135.944 324.872 136.589 325.04 137.191C325.207 137.794 325.607 138.305 326.152 138.612C326.696 138.92 327.34 138.999 327.943 138.831C328.545 138.664 329.056 138.264 329.364 137.719L341.981 115.848C342.288 115.304 342.367 114.66 342.2 114.057C342.032 113.455 341.632 112.944 341.088 112.636C340.544 112.328 339.899 112.25 339.297 112.417C338.694 112.585 338.183 112.985 337.876 113.529Z" fill="#ECEBEB"/>
<path d="M380.597 39.7054L357.706 79.3424C357.398 79.8868 357.319 80.531 357.487 81.1334C357.654 81.7359 358.054 82.2471 358.599 82.5546C359.143 82.8622 359.787 82.9409 360.39 82.7734C360.992 82.606 361.503 82.2061 361.811 81.6617L384.702 42.0248C385.01 41.4804 385.089 40.8361 384.921 40.2337C384.754 39.6313 384.354 39.1201 383.81 38.8125C383.265 38.5049 382.621 38.4262 382.018 38.5937C381.416 38.7612 380.905 39.1611 380.597 39.7054Z" fill="#ECEBEB"/>
<path d="M193.522 151.45L222.722 201.941C223.03 202.485 223.541 202.885 224.143 203.053C224.746 203.22 225.39 203.141 225.934 202.834C226.479 202.526 226.879 202.015 227.046 201.413C227.213 200.81 227.135 200.166 226.827 199.622L197.627 149.038C197.307 148.493 196.784 148.098 196.173 147.939C195.562 147.781 194.913 147.871 194.368 148.191C193.824 148.511 193.429 149.034 193.27 149.645C193.112 150.256 193.202 150.905 193.522 151.45Z" fill="#ECEBEB"/>
<path d="M172.996 115.895L185.636 137.766C185.789 138.035 185.993 138.272 186.236 138.463C186.48 138.654 186.759 138.795 187.057 138.877C187.356 138.96 187.667 138.984 187.975 138.946C188.282 138.909 188.579 138.811 188.849 138.659C189.118 138.506 189.355 138.303 189.546 138.059C189.736 137.815 189.877 137.536 189.96 137.237C190.043 136.939 190.067 136.628 190.029 136.32C189.991 136.013 189.894 135.716 189.742 135.446L177.101 113.575C176.794 113.031 176.282 112.631 175.68 112.464C175.078 112.296 174.433 112.375 173.889 112.682C173.345 112.99 172.945 113.501 172.777 114.104C172.61 114.706 172.688 115.35 172.996 115.895Z" fill="#ECEBEB"/>
<path d="M130.367 42.0711L153.305 81.7081C153.613 82.2525 154.124 82.6524 154.726 82.8198C155.329 82.9873 155.973 82.9086 156.517 82.601C157.062 82.2935 157.462 81.7823 157.629 81.1798C157.796 80.5774 157.718 79.9332 157.41 79.3888L134.519 39.7518C134.211 39.2013 133.697 38.7955 133.091 38.6237C132.484 38.4519 131.834 38.5281 131.283 38.8357C130.733 39.1433 130.327 39.6569 130.155 40.2637C129.983 40.8704 130.059 41.5206 130.367 42.0711Z" fill="#ECEBEB"/>
<path d="M133.661 259.924H192.084C192.699 259.924 193.289 259.679 193.724 259.244C194.159 258.809 194.403 258.219 194.403 257.604C194.403 256.989 194.159 256.399 193.724 255.964C193.289 255.529 192.699 255.285 192.084 255.285H133.661C133.046 255.285 132.455 255.529 132.021 255.964C131.586 256.399 131.341 256.989 131.341 257.604C131.341 258.219 131.586 258.809 132.021 259.244C132.455 259.679 133.046 259.924 133.661 259.924Z" fill="#ECEBEB"/>
<path d="M92.6088 259.924H117.866C118.481 259.924 119.071 259.679 119.506 259.244C119.941 258.809 120.185 258.219 120.185 257.604C120.185 256.989 119.941 256.399 119.506 255.964C119.071 255.529 118.481 255.285 117.866 255.285H92.6088C91.9937 255.285 91.4038 255.529 90.9688 255.964C90.5339 256.399 90.2895 256.989 90.2895 257.604C90.2895 258.219 90.5339 258.809 90.9688 259.244C91.4038 259.679 91.9937 259.924 92.6088 259.924Z" fill="#ECEBEB"/>
<path d="M7.3511 259.924H53.1342C53.7493 259.924 54.3393 259.679 54.7742 259.244C55.2092 258.809 55.4535 258.219 55.4535 257.604C55.4535 256.989 55.2092 256.399 54.7742 255.964C54.3393 255.529 53.7493 255.285 53.1342 255.285H7.3511C6.73598 255.285 6.14602 255.529 5.71107 255.964C5.27611 256.399 5.0318 256.989 5.0318 257.604C5.0318 258.219 5.27611 258.809 5.71107 259.244C6.14602 259.679 6.73598 259.924 7.3511 259.924Z" fill="#ECEBEB"/>
<path d="M197.627 365.939L226.827 315.332C227.135 314.788 227.214 314.143 227.046 313.541C226.879 312.938 226.479 312.427 225.934 312.12C225.39 311.812 224.746 311.733 224.143 311.901C223.541 312.068 223.03 312.468 222.722 313.013L193.522 363.62C193.214 364.164 193.136 364.809 193.303 365.411C193.471 366.013 193.87 366.525 194.415 366.832C194.959 367.14 195.604 367.218 196.206 367.051C196.808 366.883 197.32 366.484 197.627 365.939Z" fill="#ECEBEB"/>
<path d="M177.101 401.401L189.742 379.507C189.894 379.238 189.991 378.941 190.029 378.633C190.067 378.326 190.043 378.014 189.96 377.716C189.877 377.418 189.736 377.139 189.546 376.895C189.355 376.651 189.118 376.447 188.849 376.295C188.579 376.143 188.282 376.045 187.975 376.007C187.667 375.97 187.356 375.993 187.057 376.076C186.759 376.159 186.48 376.3 186.236 376.491C185.993 376.681 185.789 376.918 185.636 377.188L172.996 399.082C172.688 399.627 172.61 400.271 172.777 400.873C172.945 401.476 173.345 401.987 173.889 402.294C174.433 402.602 175.078 402.681 175.68 402.513C176.282 402.346 176.794 401.946 177.101 401.401Z" fill="#ECEBEB"/>
<path d="M134.472 475.318L157.364 435.658C157.671 435.113 157.75 434.469 157.583 433.867C157.415 433.264 157.015 432.753 156.471 432.445C155.926 432.138 155.282 432.059 154.68 432.227C154.077 432.394 153.566 432.794 153.259 433.338L130.367 472.998C130.06 473.543 129.981 474.187 130.148 474.79C130.316 475.392 130.716 475.903 131.26 476.211C131.804 476.518 132.449 476.597 133.051 476.43C133.653 476.262 134.165 475.862 134.472 475.318Z" fill="#ECEBEB"/>
<path d="M321.455 363.574L292.255 312.966C291.947 312.422 291.436 312.022 290.834 311.854C290.231 311.687 289.587 311.766 289.043 312.073C288.498 312.381 288.098 312.892 287.931 313.495C287.763 314.097 287.842 314.741 288.15 315.286L317.35 365.893C317.657 366.437 318.169 366.837 318.771 367.005C319.373 367.172 320.018 367.093 320.562 366.786C321.106 366.478 321.506 365.967 321.674 365.365C321.841 364.762 321.762 364.118 321.455 363.574Z" fill="#ECEBEB"/>
<path d="M341.981 399.082L329.364 377.211C329.056 376.667 328.545 376.267 327.943 376.099C327.34 375.932 326.696 376.011 326.152 376.318C325.607 376.626 325.207 377.137 325.04 377.739C324.872 378.342 324.951 378.986 325.259 379.53L337.876 401.425C338.186 401.969 338.7 402.368 339.305 402.533C339.91 402.698 340.555 402.617 341.099 402.306C341.644 401.995 342.043 401.481 342.208 400.877C342.373 400.272 342.291 399.627 341.981 399.082Z" fill="#ECEBEB"/>
<path d="M384.61 472.952L361.718 433.292C361.41 432.748 360.899 432.348 360.297 432.18C359.695 432.013 359.05 432.091 358.506 432.399C357.961 432.707 357.562 433.218 357.394 433.82C357.227 434.423 357.305 435.067 357.613 435.611L380.505 475.271C380.657 475.541 380.861 475.778 381.104 475.969C381.348 476.159 381.627 476.3 381.926 476.383C382.224 476.466 382.536 476.489 382.843 476.452C383.15 476.414 383.447 476.317 383.717 476.164C383.986 476.012 384.223 475.808 384.414 475.564C384.605 475.32 384.746 475.041 384.828 474.743C384.911 474.445 384.935 474.133 384.897 473.826C384.86 473.519 384.762 473.222 384.61 472.952Z" fill="#ECEBEB"/>
<path d="M204.121 207.484L221.423 224.786C221.869 225.229 222.473 225.477 223.101 225.474C223.73 225.472 224.332 225.221 224.775 224.775C225.217 224.329 225.465 223.725 225.463 223.096C225.461 222.468 225.209 221.866 224.763 221.423L207.461 204.121C207.015 203.678 206.411 203.431 205.783 203.433C205.154 203.435 204.552 203.687 204.11 204.133C203.667 204.579 203.419 205.182 203.421 205.811C203.423 206.439 203.675 207.041 204.121 207.484Z" fill="#ECEBEB"/>
<path d="M126.563 130.042L188.095 191.342C190.228 193.499 193.591 190.136 191.435 187.979L130.042 126.587C129.584 126.125 128.961 125.865 128.311 125.863C127.661 125.861 127.036 126.117 126.575 126.575C126.114 127.033 125.853 127.656 125.851 128.306C125.849 128.957 126.105 129.581 126.563 130.042Z" fill="#ECEBEB"/>
<path d="M69.0678 72.4309L98.6622 102.025C99.1082 102.468 99.7118 102.716 100.34 102.714C100.969 102.711 101.571 102.46 102.014 102.014C102.457 101.568 102.704 100.964 102.702 100.336C102.7 99.707 102.448 99.1051 102.002 98.6622L72.4309 69.0911C71.988 68.6451 71.3861 68.3933 70.7576 68.3912C70.1291 68.389 69.5254 68.6366 69.0795 69.0795C68.6335 69.5224 68.3818 70.1243 68.3796 70.7528C68.3774 71.3813 68.625 71.9849 69.0678 72.4309Z" fill="#ECEBEB"/>
<path d="M187.468 278.71L211.125 272.378C211.74 272.215 212.266 271.815 212.585 271.264C212.905 270.714 212.993 270.06 212.83 269.444C212.667 268.829 212.266 268.304 211.716 267.984C211.166 267.665 210.511 267.577 209.896 267.74L186.239 274.071C185.935 274.152 185.649 274.292 185.398 274.483C185.148 274.674 184.938 274.913 184.779 275.185C184.46 275.736 184.372 276.39 184.535 277.005C184.698 277.621 185.098 278.146 185.648 278.465C186.199 278.785 186.853 278.873 187.468 278.71Z" fill="#ECEBEB"/>
<path d="M81.5457 307.098L165.412 284.624C166.027 284.464 166.553 284.067 166.875 283.519C167.197 282.971 167.288 282.317 167.128 281.702C166.968 281.087 166.571 280.56 166.023 280.239C165.474 279.917 164.821 279.826 164.206 279.986L80.3165 302.46C80.0119 302.54 79.7262 302.68 79.4757 302.872C79.2252 303.063 79.0148 303.301 78.8565 303.574C78.6982 303.846 78.5952 304.147 78.5532 304.459C78.5112 304.772 78.5311 305.089 78.6119 305.394C78.6926 305.698 78.8325 305.984 79.0236 306.234C79.2147 306.485 79.4533 306.695 79.7257 306.854C79.9982 307.012 80.2991 307.115 80.6114 307.157C80.9237 307.199 81.2412 307.179 81.5457 307.098Z" fill="#ECEBEB"/>
<path d="M3.01403 328.158L43.4163 317.327C44.0314 317.164 44.5566 316.763 44.8763 316.213C45.196 315.662 45.2841 315.008 45.121 314.393C44.958 313.777 44.5573 313.252 44.0071 312.933C43.4569 312.613 42.8022 312.525 42.1871 312.688L1.7848 323.519C1.16968 323.682 0.644444 324.083 0.324753 324.633C0.0050613 325.183 -0.0829388 325.838 0.0800676 326.453C0.243074 327.068 0.64378 327.593 1.194 327.913C1.74421 328.233 2.39891 328.321 3.01403 328.158Z" fill="#ECEBEB"/>
<path d="M240.859 328.738L247.191 305.104C247.354 304.489 247.266 303.834 246.946 303.284C246.626 302.734 246.101 302.333 245.486 302.17C244.871 302.007 244.216 302.095 243.666 302.415C243.116 302.734 242.715 303.259 242.552 303.875L236.22 327.531C236.06 328.147 236.151 328.8 236.473 329.348C236.795 329.896 237.321 330.294 237.937 330.454C238.552 330.614 239.205 330.523 239.753 330.201C240.301 329.879 240.699 329.353 240.859 328.738Z" fill="#ECEBEB"/>
<path d="M212.471 434.684L234.945 350.794C235.024 350.49 235.042 350.172 234.999 349.861C234.956 349.549 234.851 349.249 234.692 348.978C234.532 348.706 234.321 348.469 234.07 348.279C233.819 348.089 233.533 347.951 233.229 347.872C232.924 347.793 232.607 347.774 232.295 347.818C231.983 347.861 231.683 347.965 231.412 348.125C231.141 348.284 230.903 348.495 230.713 348.747C230.524 348.998 230.385 349.284 230.306 349.588L207.832 433.454C207.669 434.069 207.757 434.724 208.077 435.274C208.397 435.825 208.922 436.225 209.537 436.388C210.152 436.551 210.807 436.463 211.357 436.144C211.907 435.824 212.308 435.299 212.471 434.684Z" fill="#ECEBEB"/>
<path d="M191.435 513.215L202.266 472.813C202.429 472.198 202.341 471.543 202.021 470.993C201.701 470.443 201.176 470.042 200.561 469.879C199.946 469.716 199.291 469.804 198.741 470.124C198.191 470.443 197.79 470.969 197.627 471.584L186.796 511.986C186.633 512.601 186.721 513.256 187.041 513.806C187.36 514.356 187.886 514.757 188.501 514.92C189.116 515.083 189.77 514.995 190.321 514.675C190.871 514.356 191.272 513.83 191.435 513.215Z" fill="#ECEBEB"/>
<path d="M310.879 307.539L293.554 290.237C293.111 289.794 292.51 289.545 291.884 289.545C291.257 289.545 290.657 289.794 290.214 290.237C289.771 290.68 289.522 291.281 289.522 291.907C289.522 292.533 289.771 293.134 290.214 293.577L307.516 310.879C307.959 311.325 308.561 311.577 309.189 311.579C309.818 311.581 310.421 311.333 310.867 310.89C311.313 310.448 311.565 309.846 311.567 309.217C311.569 308.589 311.322 307.985 310.879 307.539Z" fill="#ECEBEB"/>
<path d="M388.413 385.166L327.021 323.681C326.578 323.236 325.976 322.984 325.348 322.982C324.719 322.979 324.116 323.227 323.67 323.67C323.224 324.113 322.972 324.715 322.97 325.343C322.968 325.972 323.215 326.575 323.658 327.021L385.073 388.437C385.288 388.656 385.544 388.831 385.826 388.951C386.109 389.072 386.412 389.135 386.719 389.138C387.026 389.142 387.33 389.084 387.615 388.97C387.9 388.855 388.159 388.686 388.378 388.471C388.598 388.257 388.773 388.001 388.893 387.719C389.013 387.436 389.077 387.133 389.08 386.826C389.084 386.519 389.026 386.215 388.912 385.93C388.797 385.645 388.628 385.386 388.413 385.166Z" fill="#ECEBEB"/>
<path d="M445.909 442.569L416.338 412.998C415.895 412.552 415.293 412.3 414.664 412.298C414.036 412.296 413.432 412.544 412.986 412.986C412.54 413.429 412.289 414.031 412.286 414.66C412.284 415.288 412.532 415.892 412.975 416.338L442.569 445.932C443.015 446.375 443.619 446.623 444.247 446.62C444.876 446.618 445.478 446.367 445.92 445.921C446.363 445.475 446.611 444.871 446.609 444.242C446.607 443.614 446.355 443.012 445.909 442.569Z" fill="#ECEBEB"/>
<path d="M327.508 236.29L303.875 242.622C303.259 242.785 302.734 243.185 302.415 243.736C302.095 244.286 302.007 244.94 302.17 245.556C302.333 246.171 302.734 246.696 303.284 247.016C303.834 247.335 304.489 247.423 305.104 247.26L328.738 240.905C329.35 240.742 329.872 240.343 330.189 239.795C330.507 239.247 330.594 238.595 330.431 237.983C330.268 237.371 329.868 236.849 329.32 236.531C328.772 236.214 328.12 236.127 327.508 236.29Z" fill="#ECEBEB"/>
<path d="M433.431 207.902L349.565 230.376C348.95 230.539 348.425 230.939 348.105 231.49C347.785 232.04 347.697 232.695 347.86 233.31C348.023 233.925 348.424 234.45 348.974 234.77C349.524 235.089 350.179 235.177 350.794 235.014L434.66 212.54C435.275 212.377 435.801 211.977 436.12 211.426C436.44 210.876 436.528 210.221 436.365 209.606C436.202 208.991 435.801 208.466 435.251 208.146C434.701 207.827 434.046 207.739 433.431 207.902Z" fill="#ECEBEB"/>
<path d="M511.986 186.865L471.56 197.697C470.945 197.86 470.42 198.26 470.101 198.811C469.781 199.361 469.693 200.015 469.856 200.631C470.019 201.246 470.419 201.771 470.97 202.091C471.52 202.41 472.175 202.498 472.79 202.335L513.215 191.504C513.83 191.341 514.356 190.94 514.675 190.39C514.995 189.84 515.083 189.185 514.92 188.57C514.757 187.955 514.356 187.43 513.806 187.11C513.256 186.791 512.601 186.702 511.986 186.865Z" fill="#ECEBEB"/>
<path d="M274.118 186.262L267.786 209.896C267.623 210.511 267.711 211.166 268.031 211.716C268.351 212.266 268.876 212.667 269.491 212.83C270.106 212.993 270.761 212.905 271.311 212.585C271.861 212.266 272.262 211.741 272.425 211.125L278.757 187.492C278.92 186.877 278.832 186.222 278.512 185.672C278.192 185.121 277.667 184.721 277.052 184.558C276.437 184.395 275.782 184.483 275.232 184.802C274.682 185.122 274.281 185.647 274.118 186.262Z" fill="#ECEBEB"/>
<path d="M302.506 80.3397L280.032 164.206C279.869 164.821 279.957 165.476 280.277 166.026C280.596 166.576 281.122 166.977 281.737 167.14C282.352 167.303 283.007 167.215 283.557 166.895C284.107 166.575 284.508 166.05 284.671 165.435L307.145 81.569C307.225 81.2644 307.245 80.9469 307.203 80.6346C307.161 80.3223 307.058 80.0214 306.9 79.7489C306.742 79.4765 306.531 79.2379 306.281 79.0468C306.03 78.8556 305.745 78.7158 305.44 78.635C305.135 78.5543 304.818 78.5344 304.506 78.5764C304.193 78.6184 303.893 78.7214 303.62 78.8797C303.348 79.038 303.109 79.2484 302.918 79.4989C302.727 79.7494 302.587 80.0352 302.506 80.3397Z" fill="#ECEBEB"/>
<path d="M323.565 1.78474L312.734 42.2103C312.654 42.5149 312.634 42.8323 312.676 43.1446C312.718 43.4569 312.821 43.7578 312.979 44.0303C313.137 44.3027 313.348 44.5413 313.598 44.7325C313.849 44.9236 314.134 45.0635 314.439 45.1442C314.744 45.2249 315.061 45.2448 315.373 45.2029C315.686 45.1609 315.987 45.0578 316.259 44.8995C316.531 44.7412 316.77 44.5308 316.961 44.2803C317.152 44.0298 317.292 43.7441 317.373 43.4395L328.204 3.01399C328.367 2.39887 328.279 1.74418 327.959 1.19396C327.64 0.64374 327.115 0.24307 326.499 0.0800631C325.884 -0.0829433 325.23 0.00507453 324.679 0.324766C324.129 0.644458 323.728 1.16962 323.565 1.78474Z" fill="#ECEBEB"/>
</svg>
