<svg width="238" height="187" viewBox="0 0 238 187" fill="none" xmlns="http://www.w3.org/2000/svg">
<g opacity="0.2">
<path d="M73.4128 72.719C73.4128 72.2516 73.2281 71.8034 72.8993 71.4729C72.5705 71.1424 72.1245 70.9568 71.6595 70.9568H1.82347C1.33986 70.9568 0.876061 71.1499 0.534091 71.4936C0.192121 71.8373 0 72.3034 0 72.7894C0 73.2755 0.192121 73.7417 0.534091 74.0854C0.876061 74.4291 1.33986 74.6222 1.82347 74.6222H71.6595C71.902 74.623 72.1421 74.5732 72.3645 74.4759C72.5869 74.3787 72.7869 74.2361 72.9517 74.0572C73.1164 73.8783 73.2425 73.6671 73.3219 73.4367C73.4013 73.2064 73.4323 72.962 73.4128 72.719Z" fill="white"/>
<path d="M95.2947 112.122C94.984 112.123 94.679 112.206 94.411 112.364C94.143 112.522 93.9215 112.749 93.7693 113.021L58.8425 173.818C58.6886 174.086 58.6076 174.389 58.6076 174.699C58.6076 175.008 58.6886 175.312 58.8425 175.58C59.0121 175.868 59.253 176.107 59.5418 176.274C59.8307 176.441 60.1576 176.529 60.4907 176.531C60.8013 176.531 61.1063 176.447 61.3743 176.29C61.6424 176.132 61.8638 175.905 62.0161 175.633L96.9428 114.854C97.0967 114.586 97.1777 114.282 97.1777 113.973C97.1777 113.663 97.0967 113.359 96.9428 113.091C96.7755 112.8 96.5355 112.557 96.2465 112.387C95.9575 112.218 95.6295 112.126 95.2947 112.122Z" fill="white"/>
<path d="M144.266 113.021C144.115 112.751 143.896 112.526 143.632 112.369C143.367 112.211 143.066 112.126 142.758 112.122C142.425 112.124 142.098 112.213 141.809 112.38C141.52 112.547 141.279 112.786 141.11 113.074C140.956 113.342 140.875 113.646 140.875 113.955C140.875 114.264 140.956 114.568 141.11 114.836L176.037 175.686C176.187 175.961 176.407 176.191 176.675 176.352C176.943 176.514 177.25 176.6 177.562 176.602C177.895 176.599 178.222 176.508 178.509 176.338C178.72 176.226 178.906 176.072 179.055 175.885C179.205 175.698 179.315 175.483 179.379 175.252C179.443 175.021 179.46 174.779 179.428 174.542C179.396 174.304 179.316 174.076 179.193 173.87L144.266 113.021Z" fill="white"/>
<path d="M236.212 70.8863H166.341C165.857 70.8863 165.393 71.0793 165.051 71.423C164.709 71.7667 164.517 72.2329 164.517 72.719C164.517 73.205 164.709 73.6712 165.051 74.0149C165.393 74.3586 165.857 74.5517 166.341 74.5517H236.176C236.66 74.5517 237.124 74.3586 237.466 74.0149C237.808 73.6712 238 73.205 238 72.719C238 72.2329 237.808 71.7667 237.466 71.423C237.124 71.0793 236.66 70.8863 236.176 70.8863H236.212Z" fill="white"/>
<path d="M64.5058 29.4212C64.8318 29.6915 65.2404 29.8408 65.663 29.8441C65.9293 29.8456 66.1925 29.786 66.4325 29.67C66.6725 29.554 66.883 29.3845 67.0482 29.1745C67.2078 28.9959 67.3295 28.7865 67.4058 28.5589C67.482 28.3314 67.5111 28.0906 67.4914 27.8513C67.4717 27.612 67.4036 27.3793 67.2912 27.1674C67.1788 26.9556 67.0245 26.769 66.8378 26.6192L36.2418 1.08464C36.0044 0.879141 35.7165 0.741383 35.4082 0.685598C35.0998 0.629813 34.7822 0.658051 34.4884 0.76745C34.1763 0.885198 33.8996 1.08161 33.6847 1.33772C33.4697 1.59383 33.3239 1.90109 33.2611 2.23012C33.2112 2.53767 33.2433 2.85304 33.3542 3.14404C33.4651 3.43504 33.6508 3.69125 33.8923 3.88662L64.5058 29.4212Z" fill="white"/>
<path d="M55.5637 96.2094C55.4894 95.9826 55.3699 95.7732 55.2125 95.5942C55.0552 95.4152 54.8633 95.2701 54.6485 95.1679C54.4336 95.0658 54.2004 95.0085 53.9629 94.9997C53.7254 94.991 53.4885 95.0308 53.2668 95.1169L15.9029 108.95C15.6104 109.055 15.3508 109.235 15.1506 109.474C14.9503 109.712 14.8167 110 14.7632 110.307C14.7121 110.632 14.745 110.965 14.8586 111.273C14.9722 111.582 15.1627 111.856 15.412 112.069C15.7228 112.328 16.1129 112.471 16.5166 112.475C16.7386 112.475 16.9588 112.433 17.1653 112.351L54.5292 98.5179C54.7503 98.4378 54.9531 98.3138 55.1255 98.1533C55.2979 97.9929 55.4365 97.7992 55.533 97.5839C55.6295 97.3686 55.682 97.1358 55.6872 96.8997C55.6925 96.6636 55.6505 96.4289 55.5637 96.2094Z" fill="white"/>
<path d="M107.551 139.701C107.318 139.65 107.077 139.648 106.842 139.693C106.608 139.739 106.386 139.833 106.189 139.968C105.992 140.103 105.825 140.278 105.697 140.48C105.569 140.683 105.484 140.909 105.447 141.146L98.6787 180.602C98.6247 180.907 98.6514 181.22 98.756 181.511C98.8606 181.801 99.0396 182.059 99.2748 182.259C99.6184 182.548 100.054 182.704 100.502 182.699C100.723 182.7 100.942 182.664 101.151 182.593C101.442 182.485 101.7 182.3 101.897 182.059C102.094 181.817 102.224 181.528 102.273 181.219L109.023 141.78C109.069 141.546 109.066 141.305 109.016 141.072C108.965 140.839 108.868 140.618 108.73 140.424C108.593 140.229 108.417 140.065 108.214 139.941C108.011 139.816 107.786 139.735 107.551 139.701Z" fill="white"/>
<path d="M173.529 115.946C173.292 115.741 173.004 115.603 172.696 115.547C172.387 115.491 172.07 115.52 171.776 115.629C171.464 115.745 171.189 115.941 170.976 116.198C170.764 116.454 170.622 116.763 170.566 117.092C170.514 117.398 170.544 117.712 170.651 118.003C170.759 118.294 170.941 118.551 171.18 118.748L201.793 144.353C202.111 144.626 202.515 144.776 202.933 144.776C203.201 144.772 203.465 144.71 203.706 144.594C203.948 144.479 204.163 144.312 204.336 144.107C204.495 143.928 204.617 143.719 204.693 143.491C204.769 143.263 204.799 143.023 204.779 142.783C204.759 142.544 204.691 142.311 204.579 142.1C204.466 141.888 204.312 141.701 204.125 141.551L173.529 115.946Z" fill="white"/>
<path d="M182.471 49.2286C182.589 49.5786 182.813 49.8826 183.112 50.0976C183.411 50.3127 183.769 50.4278 184.137 50.4269C184.357 50.4249 184.576 50.3892 184.786 50.3211L222.15 36.4701C222.601 36.3018 222.967 35.9604 223.167 35.5209C223.368 35.0814 223.387 34.5797 223.219 34.1263C223.052 33.673 222.712 33.305 222.275 33.1034C221.837 32.9018 221.338 32.8831 220.887 33.0514L183.523 46.8848C183.296 46.9627 183.088 47.0867 182.911 47.2489C182.733 47.411 182.591 47.608 182.492 47.8276C182.394 48.0473 182.341 48.285 182.337 48.526C182.334 48.767 182.379 49.006 182.471 49.2286Z" fill="white"/>
<path d="M32.174 42.4968L78.6729 59.7314C78.8794 59.8134 79.0996 59.8553 79.3216 59.8547C79.7341 59.8319 80.1253 59.6633 80.4263 59.3789C80.6814 59.1698 80.8773 58.8968 80.9942 58.5875C81.1112 58.2782 81.1451 57.9434 81.0925 57.6167C81.0363 57.3126 80.9013 57.0287 80.7012 56.7936C80.5012 56.5585 80.2431 56.3804 79.9529 56.2774L33.3838 39.0253C33.0931 38.9111 32.7773 38.8771 32.469 38.9266C32.1608 38.9762 31.8713 39.1076 31.6305 39.3072C31.382 39.5218 31.1908 39.7954 31.0745 40.1032C30.9581 40.411 30.9202 40.7431 30.9642 41.0694C31.0117 41.3977 31.1505 41.7058 31.3645 41.9583C31.5786 42.2108 31.8591 42.3974 32.174 42.4968Z" fill="white"/>
<path d="M12.6241 35.2541L21.2506 38.4437C21.4507 38.527 21.6653 38.569 21.8818 38.5671C22.3469 38.6489 22.8252 38.5417 23.2115 38.269C23.5979 37.9964 23.8607 37.5806 23.942 37.1132C24.0234 36.6459 23.9167 36.1651 23.6454 35.7768C23.3742 35.3885 22.9605 35.1244 22.4955 35.0426L13.8866 31.853C13.5958 31.7389 13.28 31.7048 12.9717 31.7544C12.6635 31.804 12.374 31.9353 12.1332 32.1349C11.8866 32.3503 11.6979 32.6247 11.5845 32.9327C11.4711 33.2407 11.4367 33.5723 11.4844 33.8972C11.5379 34.2045 11.6716 34.4921 11.8718 34.7305C12.0721 34.9689 12.3317 35.1496 12.6241 35.2541Z" fill="white"/>
<path d="M88.3163 99.6457C88.2595 99.3147 88.1182 99.0044 87.9061 98.7449C87.694 98.4854 87.4185 98.2858 87.1065 98.1655C86.8127 98.0561 86.4951 98.0277 86.1868 98.0835C85.8784 98.1393 85.5906 98.2772 85.3532 98.4827L47.2178 130.396C47.0311 130.546 46.8768 130.733 46.7644 130.945C46.652 131.157 46.5838 131.389 46.5641 131.628C46.5444 131.868 46.5736 132.108 46.6498 132.336C46.726 132.564 46.8477 132.773 47.0074 132.952C47.1792 133.16 47.3931 133.329 47.635 133.447C47.8769 133.566 48.1411 133.631 48.4101 133.639C48.8302 133.634 49.2346 133.478 49.5497 133.198L87.6851 101.302C87.9267 101.107 88.1124 100.851 88.2232 100.56C88.3341 100.269 88.3662 99.9532 88.3163 99.6457Z" fill="white"/>
<path d="M38.3458 137.868L31.3324 143.789C31.1457 143.939 30.9914 144.126 30.879 144.338C30.7666 144.549 30.6985 144.782 30.6788 145.021C30.659 145.261 30.6882 145.501 30.7644 145.729C30.8406 145.957 30.9623 146.166 31.122 146.345C31.2684 146.535 31.452 146.693 31.6615 146.809C31.871 146.925 32.102 146.997 32.3401 147.02C32.5783 147.043 32.8186 147.017 33.0464 146.943C33.2741 146.87 33.4844 146.75 33.6644 146.591L40.6778 140.688C41.0498 140.377 41.2837 139.93 41.3281 139.446C41.3725 138.962 41.2237 138.48 40.9145 138.106C40.6052 137.732 40.1609 137.497 39.6792 137.453C39.1974 137.408 38.7178 137.557 38.3458 137.868Z" fill="white"/>
<path d="M136.411 163.438L127.995 114.272C127.959 114.034 127.876 113.805 127.749 113.601C127.622 113.396 127.455 113.22 127.258 113.083C127.061 112.946 126.838 112.851 126.602 112.804C126.367 112.757 126.125 112.759 125.891 112.809C125.652 112.841 125.423 112.921 125.217 113.046C125.01 113.17 124.832 113.336 124.692 113.532C124.552 113.729 124.454 113.953 124.404 114.189C124.354 114.425 124.353 114.67 124.4 114.907L132.816 164.055C132.884 164.472 133.098 164.851 133.419 165.122C133.741 165.394 134.15 165.541 134.57 165.535H134.92C135.159 165.504 135.388 165.423 135.595 165.299C135.801 165.175 135.979 165.009 136.119 164.812C136.259 164.615 136.357 164.392 136.407 164.156C136.457 163.919 136.459 163.675 136.411 163.438Z" fill="white"/>
<path d="M138.375 174.963C138.327 174.657 138.2 174.368 138.006 174.127C137.812 173.885 137.558 173.7 137.27 173.589C136.956 173.476 136.619 173.446 136.291 173.501C135.962 173.557 135.653 173.696 135.394 173.906C135.141 174.114 134.951 174.39 134.845 174.701C134.74 175.013 134.724 175.348 134.798 175.668L136.358 184.779C136.406 185.085 136.533 185.374 136.727 185.615C136.921 185.856 137.175 186.042 137.463 186.153C137.672 186.223 137.891 186.258 138.112 186.259C138.559 186.261 138.994 186.105 139.339 185.818C139.592 185.61 139.782 185.334 139.887 185.023C139.993 184.711 140.009 184.377 139.935 184.056L138.375 174.963Z" fill="white"/>
<path d="M205.879 102.941L159.327 85.6889C158.862 85.523 158.35 85.5495 157.905 85.7627C157.459 85.9758 157.116 86.3582 156.951 86.8255C156.786 87.2929 156.813 87.8071 157.025 88.2549C157.237 88.7027 157.617 89.0474 158.082 89.2133L204.634 106.465C204.843 106.535 205.062 106.571 205.282 106.571C205.747 106.653 206.226 106.546 206.612 106.273C206.998 106 207.261 105.585 207.343 105.117C207.424 104.65 207.317 104.169 207.046 103.781C206.775 103.393 206.361 103.129 205.896 103.047L205.879 102.941Z" fill="white"/>
<path d="M225.428 110.184L216.802 106.959C216.579 106.876 216.341 106.837 216.103 106.846C215.865 106.855 215.631 106.911 215.414 107.011C214.977 107.213 214.637 107.58 214.47 108.034C214.303 108.487 214.321 108.989 214.522 109.428C214.722 109.868 215.088 110.209 215.54 110.378L224.166 113.585C224.375 113.654 224.594 113.69 224.815 113.691C225.21 113.688 225.593 113.552 225.902 113.303C226.148 113.086 226.337 112.812 226.453 112.505C226.57 112.198 226.609 111.867 226.568 111.541C226.515 111.233 226.381 110.946 226.181 110.707C225.981 110.469 225.721 110.288 225.428 110.184Z" fill="white"/>
</g>
</svg>
